HIERARCHY
ROOT lpalm
{
OFFSET	0.000000	0.000000	0.000000
CHANNELS	6	Xposition	Yposition	Zposition	Zrotation	Xrotation	Yrotation
JOINT lthumbA
{
OFFSET	-6.570000	-2.200000	3.500000
CHANNELS	3	Zrotation	Xrotation	Yrotation
JOINT lthumbB
{
OFFSET	0.000000	0.000000	7.000000
CHANNELS	3	Zrotation	Xrotation	Yrotation
JOINT lthumbC
{
OFFSET	0.000000	0.000000	3.800000
CHANNELS	3	Zrotation	Xrotation	Yrotation
End Site
{
OFFSET	0.000000	0.000000	3.000000
}
}
}
}
JOINT lindexA
{
OFFSET	-2.730000	0.000000	10.400000
CHANNELS	3	Zrotation	Xrotation	Yrotation
JOINT lindexB
{
OFFSET	0.000000	0.000000	4.600000
CHANNELS	3	Zrotation	Xrotation	Yrotation
JOINT lindexC
{
OFFSET	0.000000	0.000000	3.000000
CHANNELS	3	Zrotation	Xrotation	Yrotation
End Site
{
OFFSET	0.000000	0.000000	2.600000
}
}
}
}
JOINT lmiddleA
{
OFFSET	-0.610000	0.000000	10.000000
CHANNELS	3	Zrotation	Xrotation	Yrotation
JOINT lmiddleB
{
OFFSET	0.000000	0.000000	5.100000
CHANNELS	3	Zrotation	Xrotation	Yrotation
JOINT lmiddleC
{
OFFSET	0.000000	0.000000	3.100000
CHANNELS	3	Zrotation	Xrotation	Yrotation
End Site
{
OFFSET	0.000000	0.000000	2.800000
}
}
}
}
JOINT lringA
{
OFFSET	1.880000	0.000000	9.700000
CHANNELS	3	Zrotation	Xrotation	Yrotation
JOINT lringB
{
OFFSET	0.000000	0.000000	4.800000
CHANNELS	3	Zrotation	Xrotation	Yrotation
JOINT lringC
{
OFFSET	0.000000	0.000000	3.000000
CHANNELS	3	Zrotation	Xrotation	Yrotation
End Site
{
OFFSET	0.000000	0.000000	2.700000
}
}
}
}
JOINT llittleA
{
OFFSET	3.540000	0.000000	8.600000
CHANNELS	3	Zrotation	Xrotation	Yrotation
JOINT llittleB
{
OFFSET	0.000000	0.000000	3.800000
CHANNELS	3	Zrotation	Xrotation	Yrotation
JOINT llittleC
{
OFFSET	0.000000	0.000000	2.300000
CHANNELS	3	Zrotation	Xrotation	Yrotation
End Site
{
OFFSET	0.000000	0.000000	2.400000
}
}
}
}
}
MOTION
Frames: 62
Frame Time: 0.023541
0 0 0 -0.34 30.29 0.58 -3.14 -3.04 -22.74 -15 0 0 0 0 12.25 0 11.86 -11.99 0 15.94 0 0 0.22 0 0 16.13 0.37 0 19.54 0 0 2.77 0 0 13.47 6.42 0 25.79 0 0 0.92 0 0 11.36 5.37 0 22.75 0 0 0 0
0 0 0 0.15 16.07 -0.52 -11.65 -2.03 -64.16 -15 0 0 0 0 7.04 0 -21.74 -9.6 0 13.81 0 0 5.27 0 0 -3.56 0.5 0 10.75 0 0 2.03 0 0 -0.89 5.06 0 12.36 0 0 1.35 0 0 11.25 2.62 0 15.9 0 0 0 0
0 0 0 0.43 -7.67 3.19 -15.71 -6.05 -36.73 -15 0 0 0 0 8.35 0 -5.83 0.09 0 5.14 0 0 4.39 0 0 -6.03 -1.42 0 0.53 0 0 3.58 0 0 -15.65 0.29 0 2.22 0 0 4.59 0 0 -8.52 3.03 0 8.15 0 0 6.74 0
0 0 0 0.6 -6.56 5.25 -5.47 -2.29 -29.11 -15 0 0 0 0 7.04 0 -7.66 -0.28 0 5.12 0 0 4.33 0 0 -5.86 -1.15 0 0.48 0 0 3.48 0 0 -13.96 0.54 0 2.83 0 0 4.59 0 0 -3.67 2.8 0 10.77 0 0 3.81 0
0 0 0 0.8 14.16 -3.19 -8.79 1.34 -80.5 -15 0 0 0 0 4.61 0 75.42 1.4 0 74.14 0 0 16.31 0 180 83.66 -178.6 0 67.45 0 0 4.49 0 0 89.79 1.4 0 68.66 0 0 1.54 0 0 10.81 -5.97 0 24.1 0 0 3.34 0
0 0 0 -0.01 1.39 0.34 -20.9 -11.51 -30.02 -14.42 -4.16 15.76 0 0 6.03 0 -14.87 -2.1 0 5.05 0 0 4.78 0 0 10.68 -0.62 0 15.7 0 0 2.77 0 0 11.82 1.28 0 19.98 0 0 0.78 0 0 24.96 1.54 0 20.19 0 0 0 0
0 0 0 0.58 -6.17 5.32 -6.83 -2.9 -30.17 -15 0 0 0 0 6.7 0 -8.21 0.03 0 4.91 0 0 4.41 0 0 -7 -1.23 0 0.33 0 0 3.55 0 0 -14.67 0.63 0 2.56 0 0 4.64 0 0 -4.41 2.86 0 10.16 0 0 4.33 0
0 0 0 -0.56 -9.4 -3.4 -29.34 6.63 -67.83 -15 0 0 0 0 11.6 0 1.35 6.08 0 7.43 0 0 8.6 0 0 75.08 -3.26 0 80.8 0 0 17.49 0 180 88.86 178.06 0 70.77 0 0 14.04 0 180 81.26 178.06 0 71.24 0 0 15.29 0
0 0 0 -0.13 -2.01 -3.68 35.08 20.83 -31.2 -13.92 -5.63 21.61 0 0 12.58 0 12.88 -12.87 0 31.16 0 0 4.56 0 0 11.07 0.9 0 16.15 0 0 5.2 0 0 10.31 0.3 0 14.8 0 0 5.21 0 0 20.58 7.99 0 17.22 0 0 3.81 0
0 0 0 -0.21 -6.04 -1.97 36.98 21.99 -30.45 -13.8 -5.94 22.83 0 0 15.41 0 34.05 -12.94 0 42.79 0 0 7.84 0 0 10.84 -2.58 0 11.14 0 0 5.05 0 0 1.26 0.16 0 9.28 0 0 6.33 0 0 12.78 5.18 0 18.91 0 0 3.43 0
0 0 0 -0.18 -7.87 -1.32 36.25 21.37 -30.36 -13.79 -5.96 22.94 0 0 16.91 0 46.18 -9.89 0 45.76 0 0 9.07 0 0 18.06 -5.94 0 13.22 0 0 4.29 0 0 2.62 0.1 0 9.11 0 0 6.44 0 0 11.84 4.38 0 19.15 0 0 3.99 0
0 0 0 -0.55 -8.67 -3.62 -25.53 -4.37 -51.46 -15 0 0 0 0 11.2 0 1.65 -3.47 0 13.55 0 0 4.47 0 0 17.26 1.04 0 8.83 0 0 3.7 0 0 10.05 0.05 0 8.34 0 0 4.64 0 0 20.59 2.85 0 12.38 0 0 1.64 0
0 0 0 -0.69 26.48 1.38 -4.44 -2.28 -64.66 -15 0 0 0 0 3.87 0 73.13 -0.97 0 61.62 0 0 12.39 0 180 86.52 179.03 0 61.94 0 0 5.43 0 0 85.29 -0.97 0 63.76 0 0 1.89 0 0 1.97 3.08 0 14.46 0 0 8.42 0
0 0 0 -0.34 -9.37 -2.08 -26.18 -5.46 -49.12 -14.93 -1.49 5.56 0 0 11.25 0 14.33 12.23 0 6.04 0 0 6.16 0 0 78.61 -2.55 0 79.84 0 0 12.44 0 180 88.99 177.49 0 66.55 0 0 9.17 0 180 89.78 177.49 0 65.69 0 0 14.86 0
0 0 0 -0.29 -4.7 -3.48 -12.77 -7.28 -29.68 -14.62 -3.41 12.84 0 0 10.6 0 -9.13 -0.13 0 7.05 0 0 5.71 0 0 33.11 3.3 0 49.9 0 0 10.43 0 0 68.83 -0.25 0 60.36 0 0 6.54 0 0 76.33 -0.26 0 56.14 0 0 13.72 0
0 0 0 0.73 9.15 -4.57 13.39 5.48 -38.45 -14.7 -3.04 11.43 0 0 34.79 0 37.3 -12.34 0 84.57 0 0 13.34 0 0 0.36 3.73 0 7.2 0 0 8.07 0 0 71.87 -0.56 0 72.48 0 0 1.29 0 0 79.51 -0.56 0 75.16 0 0 7.69 0
0 0 0 1.29 20.17 -3.51 9.29 3.35 -35.06 -15 0 0 0 0 15.46 0 17.97 -14.68 0 26.85 0 0 4.77 0 0 20.48 -0.24 0 18.01 0 0 2.79 0 0 23.08 3.8 0 28.21 0 0 1.35 0 0 22.09 6.24 0 27.93 0 0 0 0
0 0 0 0.92 16.7 -3.07 9.66 3.42 -36.93 -15 0 0 0 0 15.22 0 22.1 -13.67 0 25.74 0 0 4.56 0 0 21.73 -0.81 0 18.13 0 0 2.41 0 0 24.7 2.38 0 27.08 0 0 1.66 0 0 23.51 5.4 0 26.2 0 0 0 0
0 0 0 0.96 16.79 -3.18 9.32 3.24 -37.18 -15 0 0 0 0 15.22 0 22.05 -13.64 0 25.69 0 0 4.56 0 0 21.57 -0.88 0 18.16 0 0 2.41 0 0 24.63 2.39 0 27.13 0 0 1.68 0 0 23.41 5.39 0 26.24 0 0 0 0
0 0 0 0.9 17.03 -2.95 9.97 3.52 -36.84 -15 0 0 0 0 15.34 0 23.23 -13.38 0 25.45 0 0 4.39 0 0 21.67 -1.06 0 18.43 0 0 2.28 0 0 24.75 2.41 0 27.32 0 0 1.64 0 0 23.32 5.22 0 26.24 0 0 0 0
0 0 0 0.9 17 -2.95 10.08 3.57 -36.84 -15 0 0 0 0 15.32 0 23.33 -13.32 0 25.46 0 0 4.4 0 0 21.73 -1.1 0 18.46 0 0 2.28 0 0 24.81 2.37 0 27.34 0 0 1.62 0 0 23.37 5.21 0 26.22 0 0 0 0
0 0 0 -0.55 -9.44 -3.31 -24.47 4.41 -66.87 -15 0 0 0 0 11.95 0 0.32 5.79 0 7.4 0 0 8.78 0 0 74.51 -3.1 0 81.07 0 0 17.34 0 180 89.06 178.09 0 70.96 0 0 13.96 0 180 81.13 178.09 0 71.18 0 0 15.36 0
0 0 0 -0.56 -9.31 -3.45 -29.72 6.88 -68.01 -15 0 0 0 0 11.54 0 2.02 6.05 0 7.54 0 0 8.32 0 0 75.44 -3.2 0 80.75 0 0 17.53 0 180 88.64 178.1 0 70.77 0 0 14.23 0 180 81.04 178.1 0 71.3 0 0 15.21 0
0 0 0 -0.55 -9.13 -3.42 -29.73 6.93 -68.16 -15 0 0 0 0 11.39 0 2.37 6.08 0 7.54 0 0 8.18 0 0 75.51 -3.2 0 80.73 0 0 17.57 0 180 88.58 178.11 0 70.77 0 0 14.26 0 180 81.06 178.11 0 71.32 0 0 15.25 0
0 0 0 0.09 2.23 -2.39 57.7 27.48 -43.84 -13.21 -7.17 28.01 0 0 18 0 -35.74 -18.34 0 5.89 0 0 9.67 0 0 -14.17 4.71 0 19.11 0 0 6.77 0 0 44.13 0.1 0 60.13 0 0 2.73 0 0 65.96 0.18 0 66.38 0 0 13.98 0
0 0 0 -0.05 -4.53 -0.59 -26.2 4.59 -69.68 -15 0 0 0 0 6.02 0 -11.34 -0.02 0 13.93 0 0 4.91 0 0 3.12 1.02 0 9.19 0 0 2.92 0 0 1.63 2.51 0 10.54 0 0 2.52 0 0 16.48 -2.51 0 13.17 0 0 0 0
0 0 0 -0.96 -13.64 -3.97 -30.97 5.58 -63.6 -15 0 0 0 0 14.22 0 3.75 6.03 0 7.57 0 0 9.15 0 0 79.91 -3.01 0 81.77 0 0 18.01 0 180 85.24 178.21 0 71.43 0 0 14.16 0 180 78.08 178.21 0 72.53 0 0 16.16 0
0 0 0 0.15 1.72 -5.08 76.64 24.75 -63.47 -11.52 -9.67 39.51 0 0 24.1 0 -24.69 -25.93 0 7.76 0 0 12.08 0 0 -14.33 6.3 0 10.98 0 0 8.39 0 0 56.98 2.28 0 81.13 0 0 0.98 0 0 82.88 2.58 0 77.1 0 0 0 0
0 0 0 0.01 -1.76 0.46 -15.55 -8.54 -29.11 -14.95 -1.27 4.73 0 0 2.48 0 -24.12 -1.39 0 0 0 0 6.02 0 0 -29.93 1.61 0 0 0 0 5.15 0 0 -31.59 3.34 0 0.8 0 0 3.77 0 0 -19.33 2.76 0 1.89 0 0 10.32 0
0 0 0 0.02 -1.96 0.44 -17.6 -9.6 -29.48 -14.9 -1.75 6.56 0 0 2.63 0 -22.69 -1.62 0 0 0 0 5.59 0 0 -28.5 1.61 0 0 0 0 4.9 0 0 -30.82 3.31 0 0.9 0 0 3.84 0 0 -17.75 2.84 0 2.98 0 0 8.75 0
0 0 0 0.41 7.33 -3.19 -16.63 0.05 -69.13 -15 0 0 0 0 1.29 0 60.31 -1.29 0 53.3 0 0 11.61 0 0 73.3 -0.01 0 51.13 0 0 7.53 0 0 59.54 0.13 0 47.61 0 0 2.83 0 0 12.72 0.62 0 17.56 0 0 3.55 0
0 0 0 0.56 7.23 -4.41 -13.74 12.03 -87.5 -15 0 0 0 0 -0.63 0 83.26 1.03 0 55.52 0 0 8.98 0 180 82.64 -178.97 0 61.98 0 0 6.77 0 0 83.91 1.03 0 63.5 0 0 2.37 0 0 5.89 -3.73 0 19.53 0 0 7.95 0
0 0 0 -0.13 31.46 0.22 -4.54 -3.85 -22.98 -15 0 0 0 0 12.48 0 13.32 -11.87 0 15.96 0 0 0.08 0 0 17.94 0.43 0 20.44 0 0 2.74 0 0 15.24 5.79 0 26.33 0 0 0.82 0 0 10.97 5.36 0 23.09 0 0 0 0
0 0 0 0.14 -4.91 1.61 35.82 16.76 -37.5 -13.76 -6.04 23.26 0 0 17.26 0 48.81 -6.33 0 46.29 0 0 8.15 0 0 14.67 -6.66 0 9.67 0 0 2.59 0 0 -9.79 2.27 0 4.53 0 0 5.17 0 0 -5.49 7.69 0 11.29 0 0 6.31 0
0 0 0 0.41 -7.56 3.13 -13.42 -5.23 -36.12 -15 0 0 0 0 8.19 0 -5.06 0.05 0 5.14 0 0 4.32 0 0 -5.6 -1.49 0 0.59 0 0 3.53 0 0 -16.31 0.18 0 2.33 0 0 4.64 0 0 -9.15 3.48 0 8.65 0 0 6.79 0
0 0 0 -0.71 -10.35 -3.87 -31.69 8.99 -68.8 -15 0 0 0 0 12.24 0 1.12 6.09 0 7.29 0 0 9.15 0 0 75.74 -3.64 0 80.95 0 0 17.29 0 180 88.37 178.04 0 70.72 0 0 13.86 0 180 81.32 178.04 0 71.74 0 0 15.49 0
0 0 0 -0.33 -11.85 -1.56 14.31 10.68 -16.82 -14.01 -5.41 20.7 0 0 20.11 0 51.95 -7.02 0 42.96 0 0 9.48 0 0 31.62 -8.34 0 14.31 0 0 3.5 0 0 10.55 -1.16 0 9.13 0 0 5.67 0 0 15.64 3.64 0 19.53 0 0 2.87 0
0 0 0 -0.83 25.83 1.71 -3.97 -2.04 -66.83 -15 0 0 0 0 4.04 0 73.54 -1.36 0 64.07 0 0 12.79 0 180 85.86 178.64 0 61.46 0 0 5.51 0 0 86.08 -1.36 0 63.08 0 0 1.93 0 0 0.5 4.13 0 12.57 0 0 10.56 0
0 0 0 0.41 6.51 -3.61 73.88 27.16 -58.07 -11.26 -9.98 41.04 0 0 23.38 0 -32.77 -24.06 0 6.51 0 0 12.06 0 0 -19.16 4.27 0 5.91 0 0 9.22 0 0 53.45 2.01 0 81.48 0 0 2.01 0 0 78.36 1.3 0 79.31 0 0 0 0
0 0 0 0.41 6.21 -3.76 70.98 28.57 -54.56 -11.36 -9.86 40.45 0 0 23.59 0 -31.99 -23.93 0 6.42 0 0 11.96 0 0 -18.79 4.21 0 5.47 0 0 9.39 0 0 53.72 1.95 0 81.83 0 0 1.84 0 0 78.86 1.43 0 80 0 0 0 0
0 0 0 0.07 2 -2.14 -18 -11.38 -25.64 -14.65 -3.27 12.33 0 0 9.23 0 -1.65 -1.84 0 6.88 0 0 4.12 0 0 40.11 0.42 0 55.43 0 0 10.26 0 0 50.59 1.72 0 55.72 0 0 6.19 0 0 54.4 1.66 0 56.84 0 0 13.42 0
0 0 0 0.2 3.66 -3.07 61.74 29.55 -45.33 -12.35 -8.57 34.24 0 0 23.41 0 -32.78 -22.37 0 4.97 0 0 10.11 0 0 -16.08 4.96 0 16.2 0 0 7.49 0 0 49.88 1.25 0 69.27 0 0 0.04 0 0 68.73 0.94 0 73 0 0 12.24 0
0 0 0 0.32 5.51 -3.35 60.9 30.43 -43.77 -12.34 -8.59 34.32 0 0 25 0 -31.82 -22.71 0 4.79 0 0 10.02 0 0 -15.28 4.91 0 14.45 0 0 7.16 0 0 50.7 1.97 0 69.93 0 0 0 0 0 69.05 1.12 0 73.53 0 0 10.56 0
0 0 0 0.35 5.72 -3.51 57.52 30.48 -40.76 -12.4 -8.51 33.94 0 0 24.36 0 -31.49 -21.75 0 4.74 0 0 9.91 0 0 -16.03 5 0 14 0 0 7.27 0 0 50.23 1.99 0 69.55 0 0 0.23 0 0 68.46 1.08 0 73 0 0 10.28 0
0 0 0 0.27 4.98 -3.08 -16.56 10.28 -84.72 -15 0 0 0 0 -1.73 0 87.4 1.98 0 60 0 0 8.59 0 180 77.59 -178.02 0 64.74 0 0 6.42 0 0 88.96 1.98 0 66.22 0 0 2.48 0 0 2.38 -6.38 0 20.88 0 0 9.16 0
0 0 0 0.69 8.98 -4.4 13.2 5.41 -38.37 -14.69 -3.06 11.5 0 0 34.88 0 37.47 -12.28 0 84.25 0 0 13.64 0 0 0.68 4.06 0 7.41 0 0 7.75 0 0 71.74 -0.68 0 72.39 0 0 1.37 0 0 79.57 -0.68 0 75.09 0 0 8.12 0
0 0 0 1.06 16.72 -3.54 6.84 2.36 -36.71 -15 0 0 0 0 14.85 0 19.36 -14.21 0 26.32 0 0 4.75 0 0 21.39 -0.48 0 17.69 0 0 2.66 0 0 23.68 2.61 0 26.73 0 0 1.62 0 0 23.42 5.83 0 26.62 0 0 0 0
0 0 0 0.94 16.72 -3.14 9.26 3.26 -36.95 -15 0 0 0 0 15.26 0 22.41 -13.57 0 25.6 0 0 4.52 0 0 21.56 -0.93 0 18.26 0 0 2.36 0 0 24.78 2.4 0 27.18 0 0 1.66 0 0 23.56 5.31 0 26.24 0 0 0 0
0 0 0 0.56 -7.77 4.09 -14.81 -6.31 -33.11 -15 -0.03 0.11 0 0 7.9 0 -3.83 0.25 0 5.35 0 0 3.96 0 0 -2.78 -1.43 0 0.82 0 0 3.32 0 0 -11.92 0.15 0 2.68 0 0 4.49 0 0 -3.93 2.21 0 9.17 0 0 5.3 0
0 0 0 -0.1 -5.53 -0.99 -3.37 -1.82 -28.08 -14.92 -1.54 5.76 0 0 11.85 0 -16.55 -2.15 0 8.3 0 0 7.68 0 0 35.03 -2.46 0 60.1 0 0 15.06 0 0 48.62 0.64 0 58.39 0 0 9.8 0 0 56.6 1.18 0 59.46 0 0 14.73 0
0 0 0 -0.56 -9.65 -3.31 -28.46 6.62 -68.07 -15 0 0 0 0 11.84 0 0.41 6.25 0 7.29 0 0 8.98 0 0 74.83 -3.29 0 81.16 0 0 17.31 0 180 88.9 177.94 0 70.96 0 0 13.96 0 180 80.96 177.94 0 71.13 0 0 15.36 0
0 0 0 -0.07 -4.9 -0.79 -21.68 -5.65 -47.9 -15 0 0 0 0 9.92 0 -2.44 -2.85 0 13.63 0 0 4.97 0 0 10.53 2.16 0 7.67 0 0 3.83 0 0 5.78 1.1 0 7.9 0 0 4.7 0 0 18.42 1.68 0 13.19 0 0 0.99 0
0 0 0 -0.25 -5.23 -2.74 -24.43 -4.72 -51.9 -15 0 0 0 0 9.38 0 11.31 -3.85 0 14.1 0 0 3.2 0 0 37.43 -2.64 0 30.33 0 0 4.95 0 0 36.24 -2.03 0 31.49 0 0 1.91 0 0 20.59 4.3 0 15.31 0 0 0.54 0
0 0 0 0.23 24.13 -0.51 -2.28 -1.37 -73.97 -15 0 0 0 0 3.93 0 73.19 0.09 0 68.38 0 0 13.37 0 180 85.66 -179.91 0 64.79 0 0 5.3 0 0 87.76 0.09 0 65.52 0 0 1.91 0 0 2.19 -0.28 0 17.56 0 0 7.69 0
0 0 0 -0.87 25.45 1.82 -4.19 -2 -67 -15 0 0 0 0 3.98 0 73.74 -1.31 0 64.4 0 0 12.88 0 180 85.75 178.69 0 61.29 0 0 5.51 0 0 86.33 -1.31 0 62.61 0 0 1.99 0 0 0.01 3.94 0 12.87 0 0 10.99 0
0 0 0 0.39 6.37 -3.53 73.59 27.3 -57.64 -11.25 -9.98 41.06 0 0 23.47 0 -32.91 -23.77 0 6.46 0 0 12.1 0 0 -19.2 4.28 0 5.81 0 0 9.26 0 0 53.5 1.93 0 81.6 0 0 1.97 0 0 78.44 1.25 0 79.45 0 0 0 0
0 0 0 0.01 -2.26 0.23 -17.63 -9.6 -29.65 -14.92 -1.56 5.84 0 0 2.79 0 -22.92 -1.59 0 0 0 0 5.74 0 0 -28.84 1.54 0 0 0 0 5.05 0 0 -31.03 3.18 0 0.92 0 0 3.79 0 0 -18.83 2.62 0 2.43 0 0 9.78 0
0 0 0 0.19 1.85 -5.82 70.11 20.98 -61.35 -3.64 -14.56 75.81 0 0 22.25 0 -4.83 -11.67 0 5.26 0 0 5.1 0 0 -6.81 1.06 0 1.35 0 0 4.29 0 0 -9.7 3.22 0 1.09 0 0 4.72 0 0 6.7 5.93 0 17.11 0 0 3.99 0
0 0 0 0.54 7.05 -4.4 -13.87 12.24 -87.66 -15 0 0 0 0 -0.69 0 83.5 1.06 0 55.83 0 0 8.94 0 180 82.26 -178.94 0 62.18 0 0 6.72 0 0 84.26 1.06 0 63.6 0 0 2.38 0 0 5.58 -3.78 0 19.67 0 0 8.03 0
0 0 0 0.96 16.01 -3.33 7.75 2.63 -37.6 -15 0 0 0 0 14.97 0 21.33 -13.86 0 26.06 0 0 4.7 0 0 21.97 -0.73 0 17.96 0 0 2.51 0 0 24.57 2.23 0 26.8 0 0 1.64 0 0 23.81 5.51 0 26.36 0 0 0 0
0 0 0 0.94 16.98 -3.06 10.15 3.61 -36.84 -15 0 0 0 0 15.3 0 22.5 -13.54 0 25.55 0 0 4.48 0 0 21.49 -0.96 0 18.25 0 0 2.36 0 0 24.69 2.43 0 27.18 0 0 1.68 0 0 23.38 5.34 0 26.24 0 0 0 0
0 0 0 0.9 16.97 -2.96 9.9 3.49 -36.89 -15 0 0 0 0 15.32 0 23.21 -13.36 0 25.46 0 0 4.4 0 0 21.61 -1.06 0 18.35 0 0 2.33 0 0 24.75 2.38 0 27.25 0 0 1.66 0 0 23.38 5.22 0 26.22 0 0 0 0
